{"title":"Yankee Buccaneer(1952)MP-4[DaScubaDude]","uid":12797502,"size":864320654,"categoryP":"video","categoryS":"movies","magnet":"?xt=urn:btih:1e1ec3f778cd374e97df4d745e8a222362af9ca6&amp;dn=Yankee+Buccaneer%281952%29MP-4%5BDaScubaDude%5D&amp;tr=udp%3A%2F%2Ftracker.leechers-paradise.org%3A6969&amp;tr=udp%3A%2F%2Fzer0day.ch%3A1337&amp;tr=udp%3A%2F%2Fopen.demonii.com%3A1337&amp;tr=udp%3A%2F%2Ftracker.coppersurfer.tk%3A6969&amp;tr=udp%3A%2F%2Fexodus.desync.com%3A6969","seeders":0,"leechers":0,"uploader":"dascuba","files":1,"time":1447996737,"description":"Yankee Buccaneer (1952)\r\n86 min  |  Adventure, History, Romance  |  17 April 1953 (Finland)\r\n6.1 Your rating:   -/10   Ratings: 6.1/10 from 170 users   \r\nReviews: 10 user | 2 critic\r\nCaptain David Porter of the fledgling American Navy receives orders to masquerade as a privateer in order to corral some Caribbean pirates.\r\n\r\nDirector: Frederick De Cordova (as Frederick de Cordova)\r\nWriters: Charles K. Peck Jr. (screenplay), Charles K. Peck Jr. (story)\r\nStars: Jeff Chandler, Scott Brady, Suzan Ball \r\n\r\nGeneral\r\nComplete name                            : C:Double CrossbonesPIRATE_FRANCHISE_COLLECTION_Title2.mp4\r\nFormat                                   : MPEG-4\r\nFormat profile                           : Base Media\r\nCodec ID                                 : isom\r\nFile size                                : 729 MiB\r\nDuration                                 : 1h 15mn\r\nOverall bit rate                         : 1 347 Kbps\r\nMovie name                               : PIRATE_FRANCHISE_COLLECTION\r\nWriting application                      : Lavf54.6.100\r\n\r\nVideo\r\nID                                       : 1\r\nFormat                                   : AVC\r\nFormat/Info                              : Advanced Video Codec\r\nFormat profile                           :   \r\nFormat settings, CABAC                   : No\r\nFormat settings, ReFrames                : 6 frames\r\nFormat settings, GOP                     : M=1, N=60\r\nCodec ID                                 : avc1\r\nCodec ID/Info                            : Advanced Video Coding\r\nDuration                                 : 1h 15mn\r\nBit rate                                 : 1 204 Kbps\r\nWidth                                    : 720 pixels\r\nHeight                                   : 540 pixels\r\nDisplay aspect ratio                     : 4:3\r\nFrame rate mode                          : Constant\r\nFrame rate                               : 29.970 fps\r\nColor space                              : YUV\r\nChroma subsampling                       : 4:2:0\r\nBit depth                                : 8 bits\r\nScan type                                : Progressive\r\nBits/(Pixel*Frame)                       : 0.103\r\nStream size                              : 651 MiB (89%)\r\n\r\nAudio\r\nID                                       : 2\r\nFormat                                   : AAC\r\nFormat/Info                              : Advanced Audio Codec\r\nFormat profile                           : LC\r\nCodec ID                                 : 40\r\nDuration                                 : 1h 15mn\r\nBit rate mode                            : Constant\r\nBit rate                                 : 137 Kbps\r\nChannel(s)                               : 2 channels\r\nChannel positions                        : Front: L R\r\nSampling rate                            : 44.1 KHz\r\nCompression mode                         : Lossy\r\nStream size                              : 74.2 MiB (10%)","torrent":{"xt":"urn:btih:1e1ec3f778cd374e97df4d745e8a222362af9ca6","amp;dn":"Yankee+Buccaneer%281952%29MP-4%5BDaScubaDude%5D","amp;tr":["udp%3A%2F%2Ftracker.leechers-paradise.org%3A6969","udp%3A%2F%2Fzer0day.ch%3A1337","udp%3A%2F%2Fopen.demonii.com%3A1337","udp%3A%2F%2Ftracker.coppersurfer.tk%3A6969","udp%3A%2F%2Fexodus.desync.com%3A6969"],"infoHash":"1e1ec3f778cd374e97df4d745e8a222362af9ca6","infoHashBuffer":{"type":"Buffer","data":[30,30,195,247,120,205,55,78,151,223,77,116,94,138,34,35,98,175,156,166]},"announce":[],"urlList":[]}}